<?xml version="1.0" standalone="no"?>
<!DOCTYPE svg PUBLIC "-//W3C//DTD SVG 20010904//EN"
 "http://www.w3.org/TR/2001/REC-SVG-20010904/DTD/svg10.dtd">
<svg version="1.0" xmlns="http://www.w3.org/2000/svg"
 width="1920.000000pt" height="1920.000000pt" viewBox="0 0 1920.000000 1920.000000"
 preserveAspectRatio="xMidYMid meet">

<g transform="translate(0.000000,1920.000000) scale(0.100000,-0.100000)"
fill="#c7c7c7" stroke="none">
<path d="M9460 16004 c-268 -34 -437 -82 -643 -185 -183 -92 -336 -207 -492
-371 -283 -297 -471 -692 -526 -1108 -17 -123 -17 -418 0 -540 77 -569 386
-1071 848 -1379 51 -33 96 -61 101 -61 21 0 36 -34 33 -73 -13 -220 -76 -428
-169 -565 -101 -150 -297 -280 -528 -352 -82 -25 -253 -46 -489 -60 -226 -13
-310 -24 -449 -59 -557 -141 -916 -502 -1025 -1031 -46 -221 -73 -544 -91
-1090 -11 -353 -27 -732 -35 -820 -2 -30 -7 -91 -10 -135 -12 -156 -35 -352
-61 -505 -51 -308 -104 -491 -199 -685 -103 -209 -216 -332 -382 -416 -95 -48
-131 -88 -140 -158 -7 -52 1 -83 33 -121 65 -77 147 -83 268 -20 431 225 669
685 780 1510 42 312 61 610 86 1395 22 655 55 945 131 1144 104 272 318 471
618 572 128 44 271 68 472 79 429 25 537 44 764 140 173 73 272 138 397 258
91 87 165 186 216 287 63 126 120 327 138 483 6 58 9 63 28 59 351 -85 581
-85 932 0 19 4 22 -1 28 -59 18 -156 75 -357 138 -483 51 -101 125 -200 216
-287 125 -120 224 -185 397 -258 227 -96 335 -115 764 -140 201 -11 344 -35
472 -79 300 -101 514 -300 618 -572 76 -199 109 -489 131 -1144 25 -785 44
-1083 86 -1395 108 -805 338 -1265 747 -1492 132 -74 199 -80 272 -23 50 37
68 78 63 136 -8 77 -42 118 -141 168 -166 84 -279 207 -382 416 -195 398 -264
884 -305 2140 -32 971 -86 1272 -287 1574 -181 272 -462 459 -829 552 -139 35
-223 46 -449 59 -236 14 -407 35 -489 60 -231 72 -426 201 -529 352 -81 118
-137 290 -160 489 -12 100 -12 116 1 132 8 9 19 17 24 17 17 0 191 122 272
190 368 310 610 757 677 1250 17 122 17 417 0 540 -30 225 -88 412 -197 635
-264 541 -758 917 -1329 1010 -98 16 -346 27 -415 19z m362 -353 c152 -27 248
-59 403 -136 162 -81 239 -137 385 -284 496 -500 612 -1281 286 -1925 -220
-434 -607 -731 -1060 -813 -121 -22 -351 -22 -472 0 -453 82 -840 379 -1060
813 -278 548 -238 1197 104 1709 75 113 256 301 367 384 85 62 300 171 410
206 198 64 432 81 637 46z"/>
<path d="M7700 9622 c-40 -19 -73 -49 -92 -85 -26 -52 -22 -104 26 -302 88
-369 130 -738 130 -1165 1 -420 -32 -729 -119 -1136 -60 -278 -169 -636 -237
-782 -44 -93 -143 -194 -232 -237 -94 -45 -146 -52 -441 -65 -757 -33 -1218
-141 -1622 -382 -231 -138 -394 -336 -476 -578 -48 -140 -61 -243 -54 -404 17
-351 185 -648 477 -841 861 -568 2570 -603 4337 -87 l203 59 202 -59 c1768
-516 3477 -481 4338 87 358 237 539 661 465 1088 -86 491 -475 822 -1173 997
-267 67 -551 102 -967 120 -295 13 -347 20 -441 65 -89 43 -188 144 -232 237
-68 143 -183 527 -242 806 -83 393 -115 701 -114 1112 0 427 41 796 130 1165
47 195 52 245 29 295 -54 120 -218 132 -289 22 -42 -65 -125 -452 -165 -767
-35 -278 -44 -477 -38 -830 7 -429 41 -732 123 -1104 60 -272 189 -698 254
-836 127 -271 401 -465 690 -490 36 -3 173 -10 305 -15 484 -21 851 -81 1135
-187 350 -131 549 -301 633 -542 42 -118 49 -294 19 -418 -20 -77 -67 -183
-111 -248 -173 -255 -705 -472 -1346 -549 -598 -73 -1293 -34 -2070 115 -207
39 -537 115 -563 129 -9 4 9 15 50 30 197 73 484 202 788 355 447 224 619 298
864 370 308 90 562 83 716 -20 71 -48 104 -58 161 -52 81 10 125 50 140 132
17 87 -22 151 -130 215 -218 129 -484 159 -819 90 -286 -58 -522 -151 -1052
-417 -440 -220 -775 -362 -1177 -499 l-113 -39 -112 39 c-403 137 -738 279
-1178 499 -530 266 -766 359 -1052 417 -335 69 -601 39 -819 -90 -108 -64
-147 -128 -130 -215 15 -82 59 -122 140 -132 57 -6 90 4 161 52 154 103 408
110 716 20 245 -72 417 -146 864 -370 304 -153 591 -282 788 -355 41 -15 59
-26 50 -30 -26 -14 -356 -90 -563 -129 -777 -149 -1472 -188 -2070 -115 -641
77 -1173 294 -1346 549 -44 65 -91 171 -111 248 -29 116 -22 298 15 412 50
153 182 313 332 401 353 209 771 305 1440 334 132 5 269 12 305 15 289 25 563
220 690 490 66 142 199 579 256 845 83 387 114 666 121 1095 9 544 -30 933
-143 1410 -40 168 -63 214 -124 245 -38 20 -100 25 -130 12z"/>
</g>
</svg>
